<?xml version="1.0" encoding="utf-8"?>
<!-- Generator: Adobe Illustrator 22.1.0, SVG Export Plug-In . SVG Version: 6.00 Build 0)  -->
<svg version="1.0" id="Livello_1" xmlns="http://www.w3.org/2000/svg" xmlns:xlink="http://www.w3.org/1999/xlink" x="0px" y="0px"
	 viewBox="0 0 510.2 184.3" style="enable-background:new 0 0 510.2 184.3;" xml:space="preserve">
<polyline style="fill:#888F93;" points="108.4,37 130.3,37 150.9,8.8 49.3,8.8 28.6,37 65.5,37 27.6,142.8 76.8,125.1 108.4,37 "/>
<rect x="13.7" y="8.8" style="fill:#FFFFFF;" width="116.4" height="116.2"/>
<path style="fill-rule:evenodd;clip-rule:evenodd;fill:#888F93;" d="M182.5,97.7c7.7,0,12,3.1,12,9.9c0,6.8-3.6,9.9-12,9.9h-29
	c-9.3,0-11.9-3.1-11.9-7.9v-4c0-5.2,2-7.9,11.9-7.9H182.5 M150.8,91c-11.9,0-17,5.4-17,12.7v6.6c0,9.5,5.5,13.8,16.7,13.8h34.5
	c5.2,0,7.8-2,9.8-4.3v4.3h7.9V89c0-11.8-5.8-19.1-20.6-19.1h-25.9c-12.3,0-19.6,5.5-19.6,14.4v1.3h8.1v-1.3c0-4.4,4.2-7.7,13.5-7.7
	h23.1c9.5,0,13.3,4.9,13.3,11.2v7.7c-0.8-2.5-3.8-4.5-10-4.5H150.8z"/>
<path style="fill:#888F93;" d="M238.7,69.7c-8.8,0-13.4,2.6-15.7,7.1v-6.9h-7.8v54.3h7.8V91.1c0-10.6,5.6-14.6,16.5-14.6H259
	c10.7,0,16.5,5.2,16.5,14.6h7.9c0-11.2-5.6-21.4-23.6-21.4H238.7"/>
<path style="fill-rule:evenodd;clip-rule:evenodd;fill:#888F93;" d="M335.6,76.5c11.6,0,17,6.2,17,14.6v11.8c0,8.2-5.4,14.6-17,14.6
	H318c-12.1,0-17.9-4.5-17.9-14.6V91.1c0-9.4,5.2-14.6,17.9-14.6H335.6 M292.2,102.9c0,14.1,8.1,21.3,23.1,21.3h21.3
	c10.6,0,13.4-2.4,15.7-5.4v5.3h8V47.9h-8v27.9c-2.1-3.2-4.2-6.1-15.7-6.1h-21.3c-15.8,0-23.1,9-23.1,21.4V102.9z"/>
<path style="fill-rule:evenodd;clip-rule:evenodd;fill:#888F93;" d="M382,47.9h-7.9v7.9h7.9V47.9z M382,69.9h-7.9v54.3h7.9V69.9z"/>
<path style="fill:#888F93;" d="M441,69.9h-20.9c-8.7,0-13.5,3.2-15.9,8.8v-8.8h-7.9v54.3h7.9V91.4c0-8.8,6.7-14.8,15.9-14.8H441
	c9.3,0,15.8,5.4,15.8,14.8v32.8h7.9V92.7C464.8,80.5,458.8,69.9,441,69.9"/>
<path style="fill-rule:evenodd;clip-rule:evenodd;fill:#888F93;" d="M496.5,47.9h-18.4v14.6h18.4V47.9z M496.5,69.9h-18.4v54.3h18.4
	V69.9z"/>
<polyline style="fill:#888F93;" points="79.4,140.5 79.4,160 96.1,160 96.1,157.9 81.5,157.9 81.5,140.5 79.4,140.5 "/>
<path style="fill-rule:evenodd;clip-rule:evenodd;fill:#888F93;" d="M106.7,160h3.1c8.2,0,9.8-1.5,9.8-8.9v-1.7c0-7.5-1.7-9-9.8-9
	h-3.1c-8.2,0-9.9,1.5-9.9,9v1.7C96.8,158.4,98.5,160,106.7,160 M117.7,151c0,6.2-0.8,6.9-7.8,6.9h-3.1c-7.1,0-7.9-0.7-7.9-6.9v-1.7
	c0-6.3,0.8-6.9,7.9-6.9h3.1c7,0,7.8,0.7,7.8,6.9V151z"/>
<path style="fill:#888F93;" d="M122.1,151c0,7.3,1.8,8.9,8.6,8.9h7.2c6.1,0,7.1-1.7,7.1-9.3h-11.8v2h9.6c0,4.5-1,5.2-4.9,5.2h-7.5
	c-5.3,0-6.3-0.9-6.3-6.9v-1.8c0-5.9,1.3-6.9,6.8-6.9h6.9c3.9,0,5,1.3,5,3.5h2c0-3.8-2.3-5.5-7.1-5.5h-6.7c-7,0-9.1,1.8-9.1,9V151"/>
<rect x="148.5" y="140.5" style="fill:#888F93;" width="2" height="19.5"/>
<path style="fill:#888F93;" d="M160.7,140.5c-4,0-6,1.6-6,5.2c0,3.5,1.3,5,7.7,5.1l6.8,0.2c5.5,0.1,6.5,0.9,6.5,3.4
	c0,2.6-1.4,3.5-4.5,3.5h-9.3c-3.9,0-5-1.3-5-3.5h-2c0,3.8,2.5,5.5,6.4,5.5h10c4.5,0,6.4-1.4,6.4-5.5c0-4-1.9-5.3-9.1-5.5l-6-0.1
	c-5-0.1-5.8-0.7-5.8-3.1c0-2.1,0.7-3.2,3.9-3.2h9.9c3.9,0,5,1.3,5,3.5h2.1c0-3.7-2.3-5.5-6.6-5.5H160.7"/>
<polyline style="fill:#888F93;" points="200.4,140.5 179.3,140.5 179.3,142.5 188.9,142.5 188.9,160 190.9,160 190.9,142.5 
	200.4,142.5 200.4,140.5 "/>
<rect x="203.6" y="140.5" style="fill:#888F93;" width="2" height="19.5"/>
<path style="fill:#888F93;" d="M209.4,151c0,7.3,1.8,8.9,8.6,8.9h7.3c5.2,0,7-1.9,7-5.5h-2c0,2.5-1.3,3.5-5.1,3.5h-7.5
	c-5.3,0-6.3-0.9-6.3-6.9v-1.8c0-5.9,1.3-6.9,6.8-6.9h7c3.9,0,5,1.3,5,3.5h2c0-3.8-2.3-5.5-7.1-5.5h-6.7c-7,0-9.1,1.8-9.1,9V151"/>
<path style="fill-rule:evenodd;clip-rule:evenodd;fill:#888F93;" d="M244.2,141.9l5.9,11.4h-11.8L244.2,141.9 M242.7,140.5
	L232.6,160h2.3l2.4-4.7h13.9l2.4,4.7h2.4l-10.1-19.5H242.7z"/>
<path style="fill:#888F93;" d="M318.5,140.5c-4,0-6,1.6-6,5.2c0,3.5,1.3,5,7.7,5.1l6.8,0.2c5.5,0.1,6.5,0.9,6.5,3.4
	c0,2.6-1.4,3.5-4.5,3.5h-9.3c-3.9,0-5-1.3-5-3.5h-2c0,3.8,2.5,5.5,6.4,5.5h10c4.5,0,6.4-1.4,6.4-5.5c0-4-1.9-5.3-9.1-5.5l-6-0.1
	c-5-0.1-5.8-0.7-5.8-3.1c0-2.1,0.7-3.2,3.9-3.2h9.9c3.9,0,5,1.3,5,3.5h2.1c0-3.7-2.3-5.5-6.6-5.5H318.5"/>
<path style="fill-rule:evenodd;clip-rule:evenodd;fill:#888F93;" d="M340.3,142.5h11.3c3.5,0,4.5,1.1,4.5,3.1v1c0,2-1,3.1-4.5,3.1
	h-11.3V142.5 M358.2,145.5c0-3.1-2-5-6.6-5h-13.5V160h2.2v-8.4h11.4c4.6,0,6.6-1.9,6.6-5V145.5z"/>
<polyline style="fill:#888F93;" points="360.8,140.5 360.8,160 378.2,160 378.2,157.9 362.9,157.9 362.9,150.9 377.7,150.9 
	377.7,148.9 362.9,148.9 362.9,142.5 378.2,142.5 378.2,140.5 360.8,140.5 "/>
<path style="fill-rule:evenodd;clip-rule:evenodd;fill:#888F93;" d="M381.6,160h13.6c6.9,0,8.6-1.5,8.6-8.9v-1.6c0-7.2-2.1-9-9.1-9
	h-13V160 M401.7,151c0,6.2-0.8,6.9-6.3,6.9h-11.8v-15.5h11.3c5.5,0,6.8,1,6.8,6.9V151z"/>
<rect x="407.6" y="140.5" style="fill:#888F93;" width="2" height="19.5"/>
<polyline style="fill:#888F93;" points="433,140.5 413.6,140.5 413.6,142.5 429.5,142.5 413.6,158.4 413.6,160 433,160 433,157.9 
	417.2,157.9 433,142 433,140.5 "/>
<rect x="436.9" y="140.5" style="fill:#888F93;" width="2" height="19.5"/>
<path style="fill-rule:evenodd;clip-rule:evenodd;fill:#888F93;" d="M452.9,160h3.1c8.2,0,9.8-1.5,9.8-8.9v-1.7c0-7.5-1.7-9-9.8-9
	h-3.1c-8.2,0-9.9,1.5-9.9,9v1.7C443,158.4,444.7,160,452.9,160 M463.8,151c0,6.2-0.8,6.9-7.8,6.9h-3.1c-7.1,0-7.9-0.7-7.9-6.9v-1.7
	c0-6.3,0.8-6.9,7.9-6.9h3.1c7,0,7.8,0.7,7.8,6.9V151z"/>
<polyline style="fill:#888F93;" points="468.5,140.5 468.5,160 470.5,160 470.5,142 471.6,142 487.1,160 490.1,160 490.1,140.5 
	488,140.5 488,157.9 473,140.5 468.5,140.5 "/>
<rect x="494.2" y="140.5" style="fill:#888F93;" width="2" height="19.5"/>
<polyline style="fill:#CF483D;" points="265.3,175.4 260.3,141.9 304.2,152.2 265.3,175.4 "/>
<polyline style="fill:#CF483D;" points="13.7,8.8 49.3,8.8 28.6,36.9 65.5,36.9 34,125 13.7,125 13.7,8.8 "/>
<polyline style="fill:#CF483D;" points="130.1,36.9 130.1,125 76.6,125 76.9,124.9 108.3,36.9 130.1,36.9 "/>
</svg>
